@startuml
!pragma layout smetana
'https://plantuml.com/state-diagram
state frontpage
state createuser
state login
state adminLoggedIn
state c <<choice>>


[*]--> frontpage
frontpage-->createuser : on  create user

createuser--> c
c--> frontpage:if valid
c--> createuser : if invalid

frontpage--> login : on  login
login--> frontpage : on  outside popup window


state c2 <<choice>>
login-->c2 : on  login
c2-->loggedIn : if normal user
c2--> adminLoggedIn : if user is admin


state adminLoggedIn{

[*]-->adminhomepage
state adminhomepage: make cupcake and navigate
state adminorders : see your own orders
state adminwallet : add money to wallet
state adminpage : search customers to see orders
state cupcake : customize cupcake


adminhomepage-->adminorders : on orders
adminorders--> adminhomepage : on  back

adminhomepage--> adminwallet : on wallet
adminwallet--> adminhomepage : on back

adminhomepage--> adminpage : on adminpage
adminpage--> adminhomepage : on back
adminhomepage --> cupcake : on add

}


state loggedIn{
state homepage :make cupcake and navigate
state orders: see your own orders
state wallet: add money to wallet

[*]-->homepage
homepage-->orders : on  order
orders--> homepage : on button

homepage--> wallet : on  wallet
wallet--> homepage : on back
}
@enduml